<svg width="23" height="26" viewBox="0 0 23 26" fill="none" xmlns="http://www.w3.org/2000/svg">
<path d="M14.7693 12.0532C14.7693 12.8157 14.2068 13.4407 13.4943 13.4407C12.7943 13.4407 12.2193 12.8157 12.2193 12.0532C12.2193 11.2907 12.7818 10.6657 13.4943 10.6657C14.2068 10.6657 14.7693 11.2907 14.7693 12.0532ZM8.93184 10.6657C8.21934 10.6657 7.65684 11.2907 7.65684 12.0532C7.65684 12.8157 8.23184 13.4407 8.93184 13.4407C9.64434 13.4407 10.2068 12.8157 10.2068 12.0532C10.2193 11.2907 9.64434 10.6657 8.93184 10.6657ZM22.1318 2.75322V25.1782C18.9827 22.3953 19.9898 23.3165 16.3318 19.9157L16.9943 22.2282H2.81934C1.40684 22.2282 0.256836 21.0782 0.256836 19.6532V2.75322C0.256836 1.32822 1.40684 0.178223 2.81934 0.178223H19.5693C20.9818 0.178223 22.1318 1.32822 22.1318 2.75322ZM18.5693 14.6032C18.5693 10.5782 16.7693 7.31572 16.7693 7.31572C14.9693 5.96572 13.2568 6.00322 13.2568 6.00322L13.0818 6.20322C15.2068 6.85322 16.1943 7.79072 16.1943 7.79072C13.225 6.16333 9.73711 6.16304 6.85684 7.42822C6.39434 7.64072 6.11934 7.79072 6.11934 7.79072C6.11934 7.79072 7.15684 6.80322 9.40684 6.15322L9.28184 6.00322C9.28184 6.00322 7.56934 5.96572 5.76934 7.31572C5.76934 7.31572 3.96934 10.5782 3.96934 14.6032C3.96934 14.6032 5.01934 16.4157 7.78184 16.5032C7.78184 16.5032 8.24434 15.9407 8.61934 15.4657C7.03184 14.9907 6.43184 13.9907 6.43184 13.9907C6.61572 14.1194 6.91895 14.2863 6.94434 14.3032C9.0542 15.4848 12.0512 15.8719 14.7443 14.7407C15.1818 14.5782 15.6693 14.3407 16.1818 14.0032C16.1818 14.0032 15.5568 15.0282 13.9193 15.4907C14.2943 15.9657 14.7443 16.5032 14.7443 16.5032C17.5068 16.4157 18.5693 14.6032 18.5693 14.6032Z" fill="white" fill-opacity="0.5"/>
</svg>
