<svg width="23" height="23" viewBox="0 0 23 23" fill="none" xmlns="http://www.w3.org/2000/svg">
<path d="M11.199 6.06323C8.09351 6.06323 5.58862 8.56812 5.58862 11.6736C5.58862 14.7791 8.09351 17.2839 11.199 17.2839C14.3044 17.2839 16.8093 14.7791 16.8093 11.6736C16.8093 8.56812 14.3044 6.06323 11.199 6.06323ZM11.199 15.321C9.19214 15.321 7.55151 13.6853 7.55151 11.6736C7.55151 9.66187 9.18726 8.02612 11.199 8.02612C13.2107 8.02612 14.8464 9.66187 14.8464 11.6736C14.8464 13.6853 13.2058 15.321 11.199 15.321ZM18.3474 5.83374C18.3474 6.56128 17.7615 7.14233 17.0388 7.14233C16.3113 7.14233 15.7302 6.5564 15.7302 5.83374C15.7302 5.11108 16.3162 4.52515 17.0388 4.52515C17.7615 4.52515 18.3474 5.11108 18.3474 5.83374ZM22.0632 7.16187C21.9802 5.40894 21.5798 3.8562 20.2957 2.5769C19.0164 1.29761 17.4636 0.897217 15.7107 0.809326C13.9041 0.706787 8.48901 0.706787 6.68237 0.809326C4.93433 0.892334 3.38159 1.29272 2.09741 2.57202C0.813233 3.85132 0.417725 5.40405 0.329834 7.15698C0.227295 8.96362 0.227295 14.3787 0.329834 16.1853C0.412842 17.9382 0.813233 19.491 2.09741 20.7703C3.38159 22.0496 4.92944 22.45 6.68237 22.5378C8.48901 22.6404 13.9041 22.6404 15.7107 22.5378C17.4636 22.4548 19.0164 22.0544 20.2957 20.7703C21.575 19.491 21.9753 17.9382 22.0632 16.1853C22.1658 14.3787 22.1658 8.96851 22.0632 7.16187ZM19.7292 18.1238C19.3484 19.0808 18.6111 19.8181 17.6492 20.2039C16.2087 20.7751 12.7908 20.6433 11.199 20.6433C9.60718 20.6433 6.18433 20.7703 4.74878 20.2039C3.79175 19.823 3.05444 19.0857 2.6687 18.1238C2.09741 16.6833 2.22925 13.2654 2.22925 11.6736C2.22925 10.0818 2.1023 6.65894 2.6687 5.22339C3.04956 4.26636 3.78686 3.52905 4.74878 3.14331C6.18921 2.57202 9.60718 2.70386 11.199 2.70386C12.7908 2.70386 16.2136 2.5769 17.6492 3.14331C18.6062 3.52417 19.3435 4.26147 19.7292 5.22339C20.3005 6.66382 20.1687 10.0818 20.1687 11.6736C20.1687 13.2654 20.3005 16.6882 19.7292 18.1238Z" fill="white" fill-opacity="0.5"/>
</svg>
