<svg width="25" height="18" viewBox="0 0 25 18" fill="none" xmlns="http://www.w3.org/2000/svg">
<path d="M23.5507 2.9525C23.2781 1.92602 22.4749 1.1176 21.455 0.843251C19.6065 0.344727 12.1941 0.344727 12.1941 0.344727C12.1941 0.344727 4.78183 0.344727 2.93326 0.843251C1.91342 1.11764 1.11021 1.92602 0.837598 2.9525C0.342285 4.81304 0.342285 8.6949 0.342285 8.6949C0.342285 8.6949 0.342285 12.5768 0.837598 14.4373C1.11021 15.4638 1.91342 16.2385 2.93326 16.5129C4.78183 17.0114 12.1941 17.0114 12.1941 17.0114C12.1941 17.0114 19.6065 17.0114 21.455 16.5129C22.4749 16.2385 23.2781 15.4638 23.5507 14.4373C24.046 12.5768 24.046 8.6949 24.046 8.6949C24.046 8.6949 24.046 4.81304 23.5507 2.9525ZM9.76989 12.2193V5.17046L15.9652 8.69499L9.76989 12.2193Z" fill="white" fill-opacity="0.5"/>
</svg>
