<svg width="23" height="26" viewBox="0 0 23 26" fill="none" xmlns="http://www.w3.org/2000/svg">
<path d="M14.7692 12.0532C14.7692 12.8157 14.2067 13.4407 13.4942 13.4407C12.7942 13.4407 12.2192 12.8157 12.2192 12.0532C12.2192 11.2907 12.7817 10.6657 13.4942 10.6657C14.2067 10.6657 14.7692 11.2907 14.7692 12.0532ZM8.93171 10.6657C8.21921 10.6657 7.65671 11.2907 7.65671 12.0532C7.65671 12.8157 8.23171 13.4407 8.93171 13.4407C9.64421 13.4407 10.2067 12.8157 10.2067 12.0532C10.2192 11.2907 9.64421 10.6657 8.93171 10.6657ZM22.1317 2.75322V25.1782C18.9826 22.3953 19.9897 23.3165 16.3317 19.9157L16.9942 22.2282H2.81921C1.40671 22.2282 0.256714 21.0782 0.256714 19.6532V2.75322C0.256714 1.32822 1.40671 0.178223 2.81921 0.178223H19.5692C20.9817 0.178223 22.1317 1.32822 22.1317 2.75322ZM18.5692 14.6032C18.5692 10.5782 16.7692 7.31572 16.7692 7.31572C14.9692 5.96572 13.2567 6.00322 13.2567 6.00322L13.0817 6.20322C15.2067 6.85322 16.1942 7.79072 16.1942 7.79072C13.2249 6.16333 9.73699 6.16304 6.85671 7.42822C6.39421 7.64072 6.11921 7.79072 6.11921 7.79072C6.11921 7.79072 7.15671 6.80322 9.40671 6.15322L9.28171 6.00322C9.28171 6.00322 7.56921 5.96572 5.76921 7.31572C5.76921 7.31572 3.96921 10.5782 3.96921 14.6032C3.96921 14.6032 5.01921 16.4157 7.78171 16.5032C7.78171 16.5032 8.24421 15.9407 8.61921 15.4657C7.03171 14.9907 6.43171 13.9907 6.43171 13.9907C6.6156 14.1194 6.91882 14.2863 6.94421 14.3032C9.05408 15.4848 12.0511 15.8719 14.7442 14.7407C15.1817 14.5782 15.6692 14.3407 16.1817 14.0032C16.1817 14.0032 15.5567 15.0282 13.9192 15.4907C14.2942 15.9657 14.7442 16.5032 14.7442 16.5032C17.5067 16.4157 18.5692 14.6032 18.5692 14.6032Z" fill="black" fill-opacity="0.5"/>
</svg>
