<svg width="23" height="23" viewBox="0 0 23 23" fill="none" xmlns="http://www.w3.org/2000/svg">
<path d="M11.1991 6.06323C8.09363 6.06323 5.58874 8.56812 5.58874 11.6736C5.58874 14.7791 8.09363 17.2839 11.1991 17.2839C14.3046 17.2839 16.8094 14.7791 16.8094 11.6736C16.8094 8.56812 14.3046 6.06323 11.1991 6.06323ZM11.1991 15.321C9.19226 15.321 7.55164 13.6853 7.55164 11.6736C7.55164 9.66187 9.18738 8.02612 11.1991 8.02612C13.2108 8.02612 14.8466 9.66187 14.8466 11.6736C14.8466 13.6853 13.2059 15.321 11.1991 15.321ZM18.3475 5.83374C18.3475 6.56128 17.7616 7.14233 17.0389 7.14233C16.3114 7.14233 15.7303 6.5564 15.7303 5.83374C15.7303 5.11108 16.3163 4.52515 17.0389 4.52515C17.7616 4.52515 18.3475 5.11108 18.3475 5.83374ZM22.0634 7.16187C21.9803 5.40894 21.58 3.8562 20.2958 2.5769C19.0165 1.29761 17.4637 0.897217 15.7108 0.809326C13.9042 0.706787 8.48914 0.706787 6.6825 0.809326C4.93445 0.892334 3.38171 1.29272 2.09753 2.57202C0.813355 3.85132 0.417847 5.40405 0.329956 7.15698C0.227417 8.96362 0.227417 14.3787 0.329956 16.1853C0.412964 17.9382 0.813355 19.491 2.09753 20.7703C3.38171 22.0496 4.92957 22.45 6.6825 22.5378C8.48914 22.6404 13.9042 22.6404 15.7108 22.5378C17.4637 22.4548 19.0165 22.0544 20.2958 20.7703C21.5751 19.491 21.9755 17.9382 22.0634 16.1853C22.1659 14.3787 22.1659 8.96851 22.0634 7.16187ZM19.7294 18.1238C19.3485 19.0808 18.6112 19.8181 17.6493 20.2039C16.2089 20.7751 12.7909 20.6433 11.1991 20.6433C9.6073 20.6433 6.18445 20.7703 4.7489 20.2039C3.79187 19.823 3.05457 19.0857 2.66882 18.1238C2.09753 16.6833 2.22937 13.2654 2.22937 11.6736C2.22937 10.0818 2.10242 6.65894 2.66882 5.22339C3.04968 4.26636 3.78699 3.52905 4.7489 3.14331C6.18933 2.57202 9.6073 2.70386 11.1991 2.70386C12.7909 2.70386 16.2137 2.5769 17.6493 3.14331C18.6063 3.52417 19.3436 4.26147 19.7294 5.22339C20.3007 6.66382 20.1688 10.0818 20.1688 11.6736C20.1688 13.2654 20.3007 16.6882 19.7294 18.1238Z" fill="black" fill-opacity="0.5"/>
</svg>
