<svg width="25" height="18" viewBox="0 0 25 18" fill="none" xmlns="http://www.w3.org/2000/svg">
<path d="M23.5508 2.9525C23.2782 1.92602 22.475 1.1176 21.4552 0.843251C19.6066 0.344727 12.1943 0.344727 12.1943 0.344727C12.1943 0.344727 4.78195 0.344727 2.93338 0.843251C1.91354 1.11764 1.11033 1.92602 0.83772 2.9525C0.342407 4.81304 0.342407 8.6949 0.342407 8.6949C0.342407 8.6949 0.342407 12.5768 0.83772 14.4373C1.11033 15.4638 1.91354 16.2385 2.93338 16.5129C4.78195 17.0114 12.1943 17.0114 12.1943 17.0114C12.1943 17.0114 19.6066 17.0114 21.4552 16.5129C22.475 16.2385 23.2782 15.4638 23.5508 14.4373C24.0461 12.5768 24.0461 8.6949 24.0461 8.6949C24.0461 8.6949 24.0461 4.81304 23.5508 2.9525V2.9525ZM9.77001 12.2193V5.17046L15.9653 8.69499L9.77001 12.2193V12.2193Z" fill="black" fill-opacity="0.5"/>
</svg>
